<svg width="18" height="20" viewBox="0 0 18 20" fill="none" xmlns="http://www.w3.org/2000/svg">
<path d="M9 1L10.7961 7.56434H16.6085L11.9062 11.6213L13.7023 18.1857L9 14.1287L4.29772 18.1857L6.09383 11.6213L1.39155 7.56434H7.20389L9 1Z" fill="black" fill-opacity="0.74"/>
<path d="M9.48227 0.868042C9.42281 0.650709 9.22532 0.5 9 0.5C8.77468 0.5 8.57719 0.650709 8.51773 0.868042L6.82232 7.06434H1.39155C1.18261 7.06434 0.995695 7.19426 0.922886 7.39011C0.850078 7.58595 0.906726 7.80642 1.06493 7.94291L5.52827 11.7937L3.81545 18.0537C3.75739 18.2659 3.84483 18.4911 4.03085 18.6085C4.21688 18.7259 4.45778 18.7079 4.62434 18.5642L9 14.7891L13.3757 18.5642C13.5422 18.7079 13.7831 18.7259 13.9691 18.6085C14.1552 18.4911 14.2426 18.2659 14.1846 18.0537L12.4717 11.7937L16.9351 7.94291C17.0933 7.80642 17.1499 7.58595 17.0771 7.39011C17.0043 7.19426 16.8174 7.06434 16.6085 7.06434H11.1777L9.48227 0.868042Z" stroke="black" stroke-opacity="0.72" stroke-linejoin="round"/>
</svg>
